<svg viewBox="0 0 200 200" xmlns="http://www.w3.org/2000/svg">
  <defs>
    <radialGradient id="centerGlow" cx="50%" cy="50%" r="50%">
      <stop offset="0%" style="stop-color:#ffffff;stop-opacity:1" />
      <stop offset="10%" style="stop-color:#a78bfa;stop-opacity:0.8" />
      <stop offset="30%" style="stop-color:#8b5cf6;stop-opacity:0.5" />
      <stop offset="60%" style="stop-color:#6d28d9;stop-opacity:0.2" />
      <stop offset="100%" style="stop-color:#1e1b4b;stop-opacity:0" />
    </radialGradient>
    <filter id="glow">
      <feGaussianBlur stdDeviation="3" result="coloredBlur"/>
      <feMerge>
        <feMergeNode in="coloredBlur"/>
        <feMergeNode in="SourceGraphic"/>
      </feMerge>
    </filter>
  </defs>
  
  <!-- Background -->
  <rect width="200" height="200" fill="#0f0a3c"/>
  
  <!-- Grid pattern -->
  <g opacity="0.3">
    <pattern id="grid" width="20" height="20" patternUnits="userSpaceOnUse">
      <path d="M 20 0 L 0 0 0 20" fill="none" stroke="#4c1d95" stroke-width="0.5"/>
    </pattern>
    <rect width="200" height="200" fill="url(#grid)" />
  </g>
  
  <!-- Radial grid lines from center -->
  <g opacity="0.4" stroke="#7c3aed" stroke-width="0.5" fill="none">
    <line x1="100" y1="0" x2="100" y2="200" />
    <line x1="0" y1="100" x2="200" y2="100" />
    <line x1="30" y1="30" x2="170" y2="170" />
    <line x1="170" y1="30" x2="30" y2="170" />
    <line x1="0" y1="50" x2="200" y2="150" />
    <line x1="0" y1="150" x2="200" y2="50" />
    <line x1="50" y1="0" x2="150" y2="200" />
    <line x1="150" y1="0" x2="50" y2="200" />
  </g>
  
  <!-- Concentric circles -->
  <g opacity="0.3" stroke="#8b5cf6" stroke-width="0.5" fill="none">
    <circle cx="100" cy="100" r="20" />
    <circle cx="100" cy="100" r="40" />
    <circle cx="100" cy="100" r="60" />
    <circle cx="100" cy="100" r="80" />
  </g>
  
  <!-- Center glow -->
  <circle cx="100" cy="100" r="60" fill="url(#centerGlow)" opacity="0.8"/>
  
  <!-- Center bright point -->
  <circle cx="100" cy="100" r="8" fill="#ffffff" filter="url(#glow)" opacity="0.9"/>
  <circle cx="100" cy="100" r="4" fill="#ffffff"/>
  
  <!-- Grid intersection points -->
  <g fill="#a78bfa" opacity="0.6">
    <circle cx="60" cy="60" r="1.5" />
    <circle cx="80" cy="60" r="1.5" />
    <circle cx="100" cy="60" r="1.5" />
    <circle cx="120" cy="60" r="1.5" />
    <circle cx="140" cy="60" r="1.5" />
    
    <circle cx="60" cy="80" r="1.5" />
    <circle cx="80" cy="80" r="1.5" />
    <circle cx="120" cy="80" r="1.5" />
    <circle cx="140" cy="80" r="1.5" />
    
    <circle cx="60" cy="100" r="1.5" />
    <circle cx="80" cy="100" r="1.5" />
    <circle cx="120" cy="100" r="1.5" />
    <circle cx="140" cy="100" r="1.5" />
    
    <circle cx="60" cy="120" r="1.5" />
    <circle cx="80" cy="120" r="1.5" />
    <circle cx="120" cy="120" r="1.5" />
    <circle cx="140" cy="120" r="1.5" />
    
    <circle cx="60" cy="140" r="1.5" />
    <circle cx="80" cy="140" r="1.5" />
    <circle cx="100" cy="140" r="1.5" />
    <circle cx="120" cy="140" r="1.5" />
    <circle cx="140" cy="140" r="1.5" />
  </g>
</svg>