<svg viewBox="0 0 200 200" xmlns="http://www.w3.org/2000/svg">
  <defs>
    <radialGradient id="bgGradient" cx="50%" cy="50%" r="70%">
      <stop offset="0%" style="stop-color:#1a0f4d;stop-opacity:1" />
      <stop offset="100%" style="stop-color:#050217;stop-opacity:1" />
    </radialGradient>
    <radialGradient id="centerGlow" cx="50%" cy="50%" r="50%">
      <stop offset="0%" style="stop-color:#c4b5fd;stop-opacity:0.8" />
      <stop offset="20%" style="stop-color:#a78bfa;stop-opacity:0.6" />
      <stop offset="50%" style="stop-color:#7c3aed;stop-opacity:0.3" />
      <stop offset="100%" style="stop-color:#4c1d95;stop-opacity:0" />
    </radialGradient>
    <filter id="glow">
      <feGaussianBlur stdDeviation="2" result="coloredBlur"/>
      <feMerge>
        <feMergeNode in="coloredBlur"/>
        <feMergeNode in="SourceGraphic"/>
      </feMerge>
    </filter>
  </defs>
  
  <!-- Background with gradient -->
  <rect width="200" height="200" fill="url(#bgGradient)"/>
  
  <!-- Create perspective grid -->
  <g id="perspectiveGrid">
    <!-- Horizontal lines (perspective) -->
    <g stroke="#6d28d9" stroke-width="0.5" fill="none" opacity="0.6">
      <line x1="20" y1="40" x2="180" y2="40" />
      <line x1="30" y1="60" x2="170" y2="60" />
      <line x1="40" y1="80" x2="160" y2="80" />
      <line x1="50" y1="100" x2="150" y2="100" />
      <line x1="40" y1="120" x2="160" y2="120" />
      <line x1="30" y1="140" x2="170" y2="140" />
      <line x1="20" y1="160" x2="180" y2="160" />
    </g>
    
    <!-- Vertical lines (perspective) -->
    <g stroke="#6d28d9" stroke-width="0.5" fill="none" opacity="0.6">
      <line x1="40" y1="20" x2="40" y2="180" />
      <line x1="60" y1="30" x2="60" y2="170" />
      <line x1="80" y1="40" x2="80" y2="160" />
      <line x1="100" y1="50" x2="100" y2="150" />
      <line x1="120" y1="40" x2="120" y2="160" />
      <line x1="140" y1="30" x2="140" y2="170" />
      <line x1="160" y1="20" x2="160" y2="180" />
    </g>
    
    <!-- Diagonal lines for perspective depth -->
    <g stroke="#7c3aed" stroke-width="0.3" fill="none" opacity="0.4">
      <line x1="100" y1="100" x2="20" y2="20" />
      <line x1="100" y1="100" x2="180" y2="20" />
      <line x1="100" y1="100" x2="20" y2="180" />
      <line x1="100" y1="100" x2="180" y2="180" />
    </g>
  </g>
  
  <!-- Center glow effect -->
  <circle cx="100" cy="100" r="80" fill="url(#centerGlow)" opacity="0.6"/>
  
  <!-- Grid dots at intersections -->
  <g id="gridDots">
    <!-- Row 1 -->
    <circle cx="40" cy="40" r="2" fill="#a78bfa" opacity="0.8" filter="url(#glow)" />
    <circle cx="60" cy="40" r="2" fill="#a78bfa" opacity="0.8" filter="url(#glow)" />
    <circle cx="80" cy="40" r="2" fill="#a78bfa" opacity="0.8" filter="url(#glow)" />
    <circle cx="100" cy="40" r="2" fill="#a78bfa" opacity="0.8" filter="url(#glow)" />
    <circle cx="120" cy="40" r="2" fill="#a78bfa" opacity="0.8" filter="url(#glow)" />
    <circle cx="140" cy="40" r="2" fill="#a78bfa" opacity="0.8" filter="url(#glow)" />
    <circle cx="160" cy="40" r="2" fill="#a78bfa" opacity="0.8" filter="url(#glow)" />
    
    <!-- Row 2 -->
    <circle cx="40" cy="60" r="2" fill="#a78bfa" opacity="0.8" filter="url(#glow)" />
    <circle cx="60" cy="60" r="2" fill="#a78bfa" opacity="0.9" filter="url(#glow)" />
    <circle cx="80" cy="60" r="2" fill="#a78bfa" opacity="0.9" filter="url(#glow)" />
    <circle cx="100" cy="60" r="2" fill="#a78bfa" opacity="0.9" filter="url(#glow)" />
    <circle cx="120" cy="60" r="2" fill="#a78bfa" opacity="0.9" filter="url(#glow)" />
    <circle cx="140" cy="60" r="2" fill="#a78bfa" opacity="0.9" filter="url(#glow)" />
    <circle cx="160" cy="60" r="2" fill="#a78bfa" opacity="0.8" filter="url(#glow)" />
    
    <!-- Row 3 -->
    <circle cx="40" cy="80" r="2" fill="#a78bfa" opacity="0.8" filter="url(#glow)" />
    <circle cx="60" cy="80" r="2" fill="#a78bfa" opacity="0.9" filter="url(#glow)" />
    <circle cx="80" cy="80" r="2.5" fill="#c4b5fd" opacity="1" filter="url(#glow)" />
    <circle cx="100" cy="80" r="2.5" fill="#c4b5fd" opacity="1" filter="url(#glow)" />
    <circle cx="120" cy="80" r="2.5" fill="#c4b5fd" opacity="1" filter="url(#glow)" />
    <circle cx="140" cy="80" r="2" fill="#a78bfa" opacity="0.9" filter="url(#glow)" />
    <circle cx="160" cy="80" r="2" fill="#a78bfa" opacity="0.8" filter="url(#glow)" />
    
    <!-- Row 4 (center) -->
    <circle cx="40" cy="100" r="2" fill="#a78bfa" opacity="0.8" filter="url(#glow)" />
    <circle cx="60" cy="100" r="2" fill="#a78bfa" opacity="0.9" filter="url(#glow)" />
    <circle cx="80" cy="100" r="2.5" fill="#c4b5fd" opacity="1" filter="url(#glow)" />
    <circle cx="100" cy="100" r="3" fill="#e9d5ff" opacity="1" filter="url(#glow)" />
    <circle cx="120" cy="100" r="2.5" fill="#c4b5fd" opacity="1" filter="url(#glow)" />
    <circle cx="140" cy="100" r="2" fill="#a78bfa" opacity="0.9" filter="url(#glow)" />
    <circle cx="160" cy="100" r="2" fill="#a78bfa" opacity="0.8" filter="url(#glow)" />
    
    <!-- Row 5 -->
    <circle cx="40" cy="120" r="2" fill="#a78bfa" opacity="0.8" filter="url(#glow)" />
    <circle cx="60" cy="120" r="2" fill="#a78bfa" opacity="0.9" filter="url(#glow)" />
    <circle cx="80" cy="120" r="2.5" fill="#c4b5fd" opacity="1" filter="url(#glow)" />
    <circle cx="100" cy="120" r="2.5" fill="#c4b5fd" opacity="1" filter="url(#glow)" />
    <circle cx="120" cy="120" r="2.5" fill="#c4b5fd" opacity="1" filter="url(#glow)" />
    <circle cx="140" cy="120" r="2" fill="#a78bfa" opacity="0.9" filter="url(#glow)" />
    <circle cx="160" cy="120" r="2" fill="#a78bfa" opacity="0.8" filter="url(#glow)" />
    
    <!-- Row 6 -->
    <circle cx="40" cy="140" r="2" fill="#a78bfa" opacity="0.8" filter="url(#glow)" />
    <circle cx="60" cy="140" r="2" fill="#a78bfa" opacity="0.9" filter="url(#glow)" />
    <circle cx="80" cy="140" r="2" fill="#a78bfa" opacity="0.9" filter="url(#glow)" />
    <circle cx="100" cy="140" r="2" fill="#a78bfa" opacity="0.9" filter="url(#glow)" />
    <circle cx="120" cy="140" r="2" fill="#a78bfa" opacity="0.9" filter="url(#glow)" />
    <circle cx="140" cy="140" r="2" fill="#a78bfa" opacity="0.9" filter="url(#glow)" />
    <circle cx="160" cy="140" r="2" fill="#a78bfa" opacity="0.8" filter="url(#glow)" />
    
    <!-- Row 7 -->
    <circle cx="40" cy="160" r="2" fill="#a78bfa" opacity="0.8" filter="url(#glow)" />
    <circle cx="60" cy="160" r="2" fill="#a78bfa" opacity="0.8" filter="url(#glow)" />
    <circle cx="80" cy="160" r="2" fill="#a78bfa" opacity="0.8" filter="url(#glow)" />
    <circle cx="100" cy="160" r="2" fill="#a78bfa" opacity="0.8" filter="url(#glow)" />
    <circle cx="120" cy="160" r="2" fill="#a78bfa" opacity="0.8" filter="url(#glow)" />
    <circle cx="140" cy="160" r="2" fill="#a78bfa" opacity="0.8" filter="url(#glow)" />
    <circle cx="160" cy="160" r="2" fill="#a78bfa" opacity="0.8" filter="url(#glow)" />
  </g>
</svg>